<?xml version="1.0" encoding="utf-8"?>
<!-- Generator: Adobe Illustrator 22.0.0, SVG Export Plug-In . SVG Version: 6.00 Build 0)  -->
<svg version="1.1" id="Layer_1" xmlns="http://www.w3.org/2000/svg" xmlns:xlink="http://www.w3.org/1999/xlink" x="0px" y="0px"
	 viewBox="0 0 1140 850" style="enable-background:new 0 0 1140 850;" xml:space="preserve">
<style type="text/css">
	.st0{fill:#FFFFFF;}
	.st1{fill:none;stroke:#000000;stroke-miterlimit:10;}
</style>
<g>
	<rect x="-1" y="-0.5" class="st0" width="1142" height="851"/>
	<path d="M1140,0.5v849H0V0.5H1140 M1142-1.5H-2v853h1144V-1.5L1142-1.5z"/>
</g>
<g>
	<rect x="0.5" y="0.5" class="st0" width="284" height="259"/>
	<path d="M284,1v258H1V1H284 M285,0H0v260h285V0L285,0z"/>
</g>
<g>
	<rect x="0.3" y="0.4" class="st0" width="141.5" height="129.1"/>
	<path d="M141.3,0.9V129H0.8V0.9H141.3 M142.3-0.1H-0.3V130h142.5V-0.1L142.3-0.1z"/>
</g>
<g>
	<rect x="143.3" y="0.4" class="st0" width="141.5" height="129.1"/>
	<path d="M284.3,0.9V129H143.8V0.9H284.3 M285.3-0.1H142.8V130h142.5V-0.1L285.3-0.1z"/>
</g>
<g>
	<rect x="0.5" y="130.5" class="st0" width="100" height="129"/>
	<path d="M100,131v128H1V131H100 M101,130H0v130h101V130L101,130z"/>
</g>
<g>
	<path d="M51.2,50.4c0.8-0.1,1.9-0.2,3-0.2c2,0,3.4,0.5,4.4,1.3c1,0.9,1.5,2.1,1.5,3.9c0,1.8-0.5,3.2-1.6,4.2c-1,1-2.7,1.6-4.8,1.6
		c-1,0-1.8,0-2.5-0.1V50.4z M52.6,59.9C53,60,53.5,60,54,60c3,0,4.6-1.7,4.6-4.6c0-2.5-1.4-4.2-4.4-4.2c-0.7,0-1.3,0.1-1.6,0.1V59.9
		z"/>
	<path d="M64.4,51.9L64.4,51.9l-1.8,1l-0.3-1.1l2.3-1.2h1.2V61h-1.4V51.9z"/>
	<path d="M76.5,55.7c0,3.5-1.3,5.5-3.6,5.5c-2,0-3.4-1.9-3.4-5.3c0-3.5,1.5-5.4,3.6-5.4C75.3,50.4,76.5,52.4,76.5,55.7z M70.8,55.8
		c0,2.7,0.8,4.2,2.1,4.2c1.4,0,2.1-1.7,2.1-4.3c0-2.6-0.7-4.2-2.1-4.2C71.7,51.5,70.8,53,70.8,55.8z"/>
	<path d="M78.1,59.4c0.4,0.3,1.3,0.7,2.3,0.7c1.8,0,2.4-1.2,2.4-2c0-1.5-1.3-2.1-2.7-2.1h-0.8v-1.1h0.8c1,0,2.3-0.5,2.3-1.8
		c0-0.8-0.5-1.6-1.8-1.6c-0.8,0-1.6,0.4-2.1,0.7l-0.4-1c0.5-0.4,1.6-0.8,2.7-0.8c2,0,3,1.2,3,2.5c0,1.1-0.6,2-1.9,2.4v0
		c1.3,0.3,2.3,1.2,2.3,2.7c0,1.7-1.3,3.1-3.8,3.1c-1.2,0-2.2-0.4-2.7-0.7L78.1,59.4z"/>
	<path d="M86.4,61c0-0.5,0.1-1.3,0.1-2v-9.4h1.4v4.9h0c0.5-0.9,1.4-1.4,2.6-1.4c1.9,0,3.3,1.6,3.3,4c0,2.8-1.7,4.1-3.5,4.1
		c-1.1,0-2-0.4-2.6-1.5h0L87.6,61H86.4z M87.8,57.9c0,0.2,0,0.4,0.1,0.5c0.3,1,1.1,1.6,2.1,1.6c1.5,0,2.4-1.2,2.4-3
		c0-1.6-0.8-2.9-2.3-2.9c-1,0-1.9,0.7-2.1,1.7c0,0.2-0.1,0.4-0.1,0.6V57.9z"/>
</g>
<g>
	<path d="M189.2,50.4c0.8-0.1,1.9-0.2,3-0.2c2,0,3.4,0.5,4.4,1.3c1,0.9,1.5,2.1,1.5,3.9c0,1.8-0.5,3.2-1.6,4.2c-1,1-2.7,1.6-4.8,1.6
		c-1,0-1.8,0-2.5-0.1V50.4z M190.6,59.9C191,60,191.5,60,192,60c3,0,4.6-1.7,4.6-4.6c0-2.5-1.4-4.2-4.4-4.2c-0.7,0-1.3,0.1-1.6,0.1
		V59.9z"/>
	<path d="M202.4,51.9L202.4,51.9l-1.8,1l-0.3-1.1l2.3-1.2h1.2V61h-1.4V51.9z"/>
	<path d="M214.5,55.7c0,3.5-1.3,5.5-3.6,5.5c-2,0-3.4-1.9-3.4-5.3c0-3.5,1.5-5.4,3.6-5.4C213.3,50.4,214.5,52.4,214.5,55.7z
		 M208.8,55.8c0,2.7,0.8,4.2,2.1,4.2c1.4,0,2.1-1.7,2.1-4.3c0-2.6-0.7-4.2-2.1-4.2C209.7,51.5,208.8,53,208.8,55.8z"/>
	<path d="M216.1,59.4c0.4,0.3,1.3,0.7,2.3,0.7c1.8,0,2.4-1.2,2.4-2c0-1.5-1.3-2.1-2.7-2.1h-0.8v-1.1h0.8c1,0,2.3-0.5,2.3-1.8
		c0-0.8-0.5-1.6-1.8-1.6c-0.8,0-1.6,0.4-2.1,0.7l-0.4-1c0.5-0.4,1.6-0.8,2.7-0.8c2,0,3,1.2,3,2.5c0,1.1-0.6,2-1.9,2.4v0
		c1.3,0.3,2.3,1.2,2.3,2.7c0,1.7-1.3,3.1-3.8,3.1c-1.2,0-2.2-0.4-2.7-0.7L216.1,59.4z"/>
	<path d="M230,60.7c-0.4,0.2-1.2,0.4-2.2,0.4c-2.3,0-3.9-1.6-3.9-4c0-2.4,1.6-4.1,4.2-4.1c0.8,0,1.6,0.2,2,0.4l-0.3,1.1
		c-0.3-0.2-0.9-0.4-1.6-0.4c-1.8,0-2.7,1.3-2.7,2.9c0,1.8,1.2,2.9,2.7,2.9c0.8,0,1.3-0.2,1.7-0.4L230,60.7z"/>
</g>
<g>
	<path d="M33.2,184.4c0.8-0.1,1.9-0.2,3-0.2c2,0,3.4,0.5,4.4,1.3c1,0.9,1.5,2.1,1.5,3.9c0,1.8-0.5,3.2-1.6,4.2c-1,1-2.7,1.6-4.8,1.6
		c-1,0-1.8,0-2.5-0.1V184.4z M34.6,193.9C35,194,35.5,194,36,194c3,0,4.6-1.7,4.6-4.6c0-2.5-1.4-4.2-4.4-4.2c-0.7,0-1.3,0.1-1.6,0.1
		V193.9z"/>
	<path d="M46.4,185.9L46.4,185.9l-1.8,1l-0.3-1.1l2.3-1.2h1.2V195h-1.4V185.9z"/>
	<path d="M58.5,189.7c0,3.5-1.3,5.5-3.6,5.5c-2,0-3.4-1.9-3.4-5.3c0-3.5,1.5-5.4,3.6-5.4C57.3,184.4,58.5,186.4,58.5,189.7z
		 M52.8,189.8c0,2.7,0.8,4.2,2.1,4.2c1.4,0,2.1-1.7,2.1-4.3c0-2.6-0.7-4.2-2.1-4.2C53.7,185.5,52.8,187,52.8,189.8z"/>
	<path d="M60.1,193.4c0.4,0.3,1.3,0.7,2.3,0.7c1.8,0,2.4-1.2,2.4-2c0-1.5-1.3-2.1-2.7-2.1h-0.8v-1.1h0.8c1,0,2.3-0.5,2.3-1.8
		c0-0.8-0.5-1.6-1.8-1.6c-0.8,0-1.6,0.4-2.1,0.7l-0.4-1c0.5-0.4,1.6-0.8,2.7-0.8c2,0,3,1.2,3,2.5c0,1.1-0.6,2-1.9,2.4v0
		c1.3,0.3,2.3,1.2,2.3,2.7c0,1.7-1.3,3.1-3.8,3.1c-1.2,0-2.2-0.4-2.7-0.7L60.1,193.4z"/>
	<path d="M72.7,195l-0.1-1h0c-0.4,0.6-1.3,1.2-2.4,1.2c-1.6,0-2.4-1.1-2.4-2.2c0-1.9,1.7-2.9,4.7-2.9v-0.2c0-0.6-0.2-1.8-1.8-1.8
		c-0.7,0-1.5,0.2-2,0.6l-0.3-0.9c0.6-0.4,1.6-0.7,2.5-0.7c2.4,0,2.9,1.6,2.9,3.2v2.9c0,0.7,0,1.3,0.1,1.9H72.7z M72.5,191
		c-1.5,0-3.3,0.2-3.3,1.7c0,0.9,0.6,1.3,1.3,1.3c1,0,1.6-0.6,1.9-1.3c0-0.1,0.1-0.3,0.1-0.4V191z"/>
</g>
<g>
	<path d="M171.2,184.4c0.8-0.1,1.9-0.2,3-0.2c2,0,3.4,0.5,4.4,1.3c1,0.9,1.5,2.1,1.5,3.9c0,1.8-0.5,3.2-1.6,4.2
		c-1,1-2.7,1.6-4.8,1.6c-1,0-1.8,0-2.5-0.1V184.4z M172.6,193.9c0.4,0.1,0.9,0.1,1.4,0.1c3,0,4.6-1.7,4.6-4.6c0-2.5-1.4-4.2-4.4-4.2
		c-0.7,0-1.3,0.1-1.6,0.1V193.9z"/>
	<path d="M184.4,185.9L184.4,185.9l-1.8,1l-0.3-1.1l2.3-1.2h1.2V195h-1.4V185.9z"/>
	<path d="M196.5,189.7c0,3.5-1.3,5.5-3.6,5.5c-2,0-3.4-1.9-3.4-5.3c0-3.5,1.5-5.4,3.6-5.4C195.3,184.4,196.5,186.4,196.5,189.7z
		 M190.8,189.8c0,2.7,0.8,4.2,2.1,4.2c1.4,0,2.1-1.7,2.1-4.3c0-2.6-0.7-4.2-2.1-4.2C191.7,185.5,190.8,187,190.8,189.8z"/>
	<path d="M198.1,193.4c0.4,0.3,1.3,0.7,2.3,0.7c1.8,0,2.4-1.2,2.4-2c0-1.5-1.3-2.1-2.7-2.1h-0.8v-1.1h0.8c1,0,2.3-0.5,2.3-1.8
		c0-0.8-0.5-1.6-1.8-1.6c-0.8,0-1.6,0.4-2.1,0.7l-0.4-1c0.5-0.4,1.6-0.8,2.7-0.8c2,0,3,1.2,3,2.5c0,1.1-0.6,2-1.9,2.4v0
		c1.3,0.3,2.3,1.2,2.3,2.7c0,1.7-1.3,3.1-3.8,3.1c-1.2,0-2.2-0.4-2.7-0.7L198.1,193.4z"/>
</g>
<rect x="-0.3" y="559.7" class="st1" width="285" height="291.5"/>
<g>
	<path d="M122.2,694.4c0.8-0.1,1.9-0.2,3-0.2c2,0,3.4,0.5,4.4,1.3c1,0.9,1.5,2.1,1.5,3.9c0,1.8-0.5,3.2-1.6,4.2
		c-1,1-2.7,1.6-4.8,1.6c-1,0-1.8,0-2.5-0.1V694.4z M123.6,703.9c0.4,0.1,0.9,0.1,1.4,0.1c3,0,4.6-1.7,4.6-4.6c0-2.5-1.4-4.2-4.4-4.2
		c-0.7,0-1.3,0.1-1.6,0.1V703.9z"/>
	<path d="M135.4,695.9L135.4,695.9l-1.8,1l-0.3-1.1l2.3-1.2h1.2V705h-1.4V695.9z"/>
	<path d="M147.5,699.7c0,3.5-1.3,5.5-3.6,5.5c-2,0-3.4-1.9-3.4-5.3c0-3.5,1.5-5.4,3.6-5.4C146.3,694.4,147.5,696.4,147.5,699.7z
		 M141.8,699.8c0,2.7,0.8,4.2,2.1,4.2c1.4,0,2.1-1.7,2.1-4.3c0-2.6-0.7-4.2-2.1-4.2C142.7,695.5,141.8,697,141.8,699.8z"/>
	<path d="M151.8,695.9L151.8,695.9l-1.8,1l-0.3-1.1l2.3-1.2h1.2V705h-1.4V695.9z"/>
</g>
<rect x="-0.5" y="259.5" class="st1" width="285" height="300.1"/>
<g>
	<path d="M122.2,398.4c0.8-0.1,1.9-0.2,3-0.2c2,0,3.4,0.5,4.4,1.3c1,0.9,1.5,2.1,1.5,3.9c0,1.8-0.5,3.2-1.6,4.2
		c-1,1-2.7,1.6-4.8,1.6c-1,0-1.8,0-2.5-0.1V398.4z M123.6,407.9c0.4,0.1,0.9,0.1,1.4,0.1c3,0,4.6-1.7,4.6-4.6c0-2.5-1.4-4.2-4.4-4.2
		c-0.7,0-1.3,0.1-1.6,0.1V407.9z"/>
	<path d="M135.4,399.9L135.4,399.9l-1.8,1l-0.3-1.1l2.3-1.2h1.2V409h-1.4V399.9z"/>
	<path d="M147.5,403.7c0,3.5-1.3,5.5-3.6,5.5c-2,0-3.4-1.9-3.4-5.3c0-3.5,1.5-5.4,3.6-5.4C146.3,398.4,147.5,400.4,147.5,403.7z
		 M141.8,403.8c0,2.7,0.8,4.2,2.1,4.2c1.4,0,2.1-1.7,2.1-4.3c0-2.6-0.7-4.2-2.1-4.2C142.7,399.5,141.8,401,141.8,403.8z"/>
	<path d="M148.8,409v-0.9l1.1-1.1c2.7-2.5,3.9-3.9,3.9-5.4c0-1.1-0.5-2-2.1-2c-0.9,0-1.7,0.5-2.2,0.9l-0.4-1
		c0.7-0.6,1.7-1.1,2.9-1.1c2.2,0,3.2,1.5,3.2,3c0,1.9-1.4,3.5-3.6,5.6l-0.8,0.8v0h4.7v1.2H148.8z"/>
</g>
<rect x="369.5" y="646.5" class="st1" width="440" height="204"/>
<rect x="876.5" y="559.5" class="st1" width="263" height="290"/>
<g>
	<path d="M468.2,738.4c0.8-0.1,1.9-0.2,3-0.2c2,0,3.4,0.5,4.4,1.3c1,0.9,1.5,2.1,1.5,3.9c0,1.8-0.5,3.2-1.6,4.2
		c-1,1-2.7,1.6-4.8,1.6c-1,0-1.8,0-2.5-0.1V738.4z M469.6,747.9c0.4,0.1,0.9,0.1,1.4,0.1c3,0,4.6-1.7,4.6-4.6c0-2.5-1.4-4.2-4.4-4.2
		c-0.7,0-1.3,0.1-1.6,0.1V747.9z"/>
	<path d="M481.4,739.9L481.4,739.9l-1.8,1l-0.3-1.1l2.3-1.2h1.2V749h-1.4V739.9z"/>
	<path d="M486.6,749v-0.9l1.1-1.1c2.7-2.5,3.9-3.9,3.9-5.4c0-1.1-0.5-2-2.1-2c-0.9,0-1.7,0.5-2.2,0.9l-0.4-1
		c0.7-0.6,1.7-1.1,2.9-1.1c2.2,0,3.2,1.5,3.2,3c0,1.9-1.4,3.5-3.6,5.6l-0.8,0.8v0h4.7v1.2H486.6z"/>
	<path d="M494.8,749v-0.9l1.1-1.1c2.7-2.5,3.9-3.9,3.9-5.4c0-1.1-0.5-2-2.1-2c-0.9,0-1.7,0.5-2.2,0.9l-0.4-1
		c0.7-0.6,1.7-1.1,2.9-1.1c2.2,0,3.2,1.5,3.2,3c0,1.9-1.4,3.5-3.6,5.6l-0.8,0.8v0h4.7v1.2H494.8z"/>
</g>
<rect x="664" y="646" class="st1" width="145" height="107"/>
<rect x="663.5" y="752.5" class="st1" width="146" height="98"/>
<g>
	<path d="M719.2,689.4c0.8-0.1,1.9-0.2,3-0.2c2,0,3.4,0.5,4.4,1.3c1,0.9,1.5,2.1,1.5,3.9c0,1.8-0.5,3.2-1.6,4.2
		c-1,1-2.7,1.6-4.8,1.6c-1,0-1.8,0-2.5-0.1V689.4z M720.6,698.9c0.4,0.1,0.9,0.1,1.4,0.1c3,0,4.6-1.7,4.6-4.6c0-2.5-1.4-4.2-4.4-4.2
		c-0.7,0-1.3,0.1-1.6,0.1V698.9z"/>
	<path d="M732.4,690.9L732.4,690.9l-1.8,1l-0.3-1.1l2.3-1.2h1.2V700h-1.4V690.9z"/>
	<path d="M740.6,690.9L740.6,690.9l-1.8,1l-0.3-1.1l2.3-1.2h1.2V700h-1.4V690.9z"/>
	<path d="M746.1,698.4c0.4,0.3,1.3,0.7,2.3,0.7c1.8,0,2.4-1.2,2.4-2c0-1.5-1.3-2.1-2.7-2.1h-0.8v-1.1h0.8c1,0,2.3-0.5,2.3-1.8
		c0-0.8-0.5-1.6-1.8-1.6c-0.8,0-1.6,0.4-2.1,0.7l-0.4-1c0.5-0.4,1.6-0.8,2.7-0.8c2,0,3,1.2,3,2.5c0,1.1-0.6,2-1.9,2.4v0
		c1.3,0.3,2.3,1.2,2.3,2.7c0,1.7-1.3,3.1-3.8,3.1c-1.2,0-2.2-0.4-2.7-0.7L746.1,698.4z"/>
</g>
<g>
	<path d="M719.2,791.4c0.8-0.1,1.9-0.2,3-0.2c2,0,3.4,0.5,4.4,1.3c1,0.9,1.5,2.1,1.5,3.9c0,1.8-0.5,3.2-1.6,4.2
		c-1,1-2.7,1.6-4.8,1.6c-1,0-1.8,0-2.5-0.1V791.4z M720.6,800.9c0.4,0.1,0.9,0.1,1.4,0.1c3,0,4.6-1.7,4.6-4.6c0-2.5-1.4-4.2-4.4-4.2
		c-0.7,0-1.3,0.1-1.6,0.1V800.9z"/>
	<path d="M732.4,792.9L732.4,792.9l-1.8,1l-0.3-1.1l2.3-1.2h1.2V802h-1.4V792.9z"/>
	<path d="M740.6,792.9L740.6,792.9l-1.8,1l-0.3-1.1l2.3-1.2h1.2V802h-1.4V792.9z"/>
	<path d="M750.1,802v-2.8h-4.8v-0.9l4.6-6.6h1.5v6.5h1.5v1.1h-1.5v2.8H750.1z M750.1,798.1v-3.5c0-0.5,0-1.1,0-1.6h0
		c-0.3,0.6-0.6,1.1-0.9,1.5l-2.5,3.5v0H750.1z"/>
</g>
<rect x="876" y="559" class="st1" width="132" height="116"/>
<rect x="1007.5" y="558.5" class="st1" width="132" height="116"/>
<rect x="875.5" y="674.5" class="st1" width="132" height="175"/>
<rect x="1007.5" y="674.5" class="st1" width="132" height="175"/>
<g>
	<path d="M923.2,606.4c0.8-0.1,1.9-0.2,3-0.2c2,0,3.4,0.5,4.4,1.3c1,0.9,1.5,2.1,1.5,3.9c0,1.8-0.5,3.2-1.6,4.2
		c-1,1-2.7,1.6-4.8,1.6c-1,0-1.8,0-2.5-0.1V606.4z M924.6,615.9c0.4,0.1,0.9,0.1,1.4,0.1c3,0,4.6-1.7,4.6-4.6c0-2.5-1.4-4.2-4.4-4.2
		c-0.7,0-1.3,0.1-1.6,0.1V615.9z"/>
	<path d="M936.4,607.9L936.4,607.9l-1.8,1l-0.3-1.1l2.3-1.2h1.2V617h-1.4V607.9z"/>
	<path d="M948.5,611.7c0,3.5-1.3,5.5-3.6,5.5c-2,0-3.4-1.9-3.4-5.3c0-3.5,1.5-5.4,3.6-5.4C947.3,606.4,948.5,608.4,948.5,611.7z
		 M942.8,611.8c0,2.7,0.8,4.2,2.1,4.2c1.4,0,2.1-1.7,2.1-4.3c0-2.6-0.7-4.2-2.1-4.2C943.7,607.5,942.8,609,942.8,611.8z"/>
	<path d="M950.6,616c0.3,0,0.7,0,1.1,0c0.8-0.1,1.6-0.4,2.2-1c0.7-0.6,1.2-1.5,1.4-2.8h0c-0.6,0.7-1.4,1.1-2.4,1.1
		c-1.9,0-3.1-1.4-3.1-3.2c0-2,1.4-3.7,3.6-3.7s3.4,1.7,3.4,4.4c0,2.3-0.8,3.9-1.8,4.9c-0.8,0.8-1.9,1.3-3,1.4
		c-0.5,0.1-1,0.1-1.3,0.1V616z M951.1,610c0,1.3,0.8,2.2,2,2.2c0.9,0,1.7-0.5,2-1.1c0.1-0.1,0.1-0.3,0.1-0.5c0-1.8-0.7-3.1-2.1-3.1
		C952,607.5,951.1,608.5,951.1,610z"/>
	<path d="M923.2,625.6c0.7-0.1,1.7-0.2,2.7-0.2c1.5,0,2.4,0.3,3.1,0.9c0.5,0.5,0.8,1.2,0.8,2c0,1.4-0.9,2.4-2,2.8v0
		c0.8,0.3,1.3,1.1,1.6,2.2c0.4,1.5,0.6,2.5,0.8,3h-1.4c-0.2-0.3-0.4-1.2-0.7-2.6c-0.3-1.5-0.9-2-2.2-2.1h-1.3v4.7h-1.4V625.6z
		 M924.6,630.5h1.4c1.5,0,2.4-0.8,2.4-2c0-1.4-1-2-2.5-2c-0.7,0-1.2,0.1-1.4,0.1V630.5z"/>
	<path d="M932.6,632.6c0,1.9,1.2,2.7,2.7,2.7c1,0,1.6-0.2,2.1-0.4l0.2,1c-0.5,0.2-1.3,0.5-2.6,0.5c-2.4,0-3.8-1.6-3.8-3.9
		c0-2.3,1.4-4.2,3.6-4.2c2.5,0,3.2,2.2,3.2,3.6c0,0.3,0,0.5,0,0.7H932.6z M936.8,631.6c0-0.9-0.4-2.3-2-2.3c-1.4,0-2,1.3-2.2,2.3
		H936.8z"/>
	<path d="M945.4,635.9c-0.4,0.2-1.2,0.4-2.2,0.4c-2.3,0-3.9-1.6-3.9-4c0-2.4,1.6-4.1,4.2-4.1c0.8,0,1.6,0.2,2,0.4l-0.3,1.1
		c-0.3-0.2-0.9-0.4-1.6-0.4c-1.8,0-2.7,1.3-2.7,2.9c0,1.8,1.2,2.9,2.7,2.9c0.8,0,1.3-0.2,1.7-0.4L945.4,635.9z"/>
	<path d="M947.7,632.6c0,1.9,1.2,2.7,2.7,2.7c1,0,1.6-0.2,2.1-0.4l0.2,1c-0.5,0.2-1.3,0.5-2.6,0.5c-2.4,0-3.8-1.6-3.8-3.9
		c0-2.3,1.4-4.2,3.6-4.2c2.5,0,3.2,2.2,3.2,3.6c0,0.3,0,0.5,0,0.7H947.7z M951.8,631.6c0-0.9-0.4-2.3-2-2.3c-1.4,0-2,1.3-2.2,2.3
		H951.8z"/>
	<path d="M954.9,631c0-1,0-1.8-0.1-2.5h1.3l0.1,1.3h0c0.6-0.9,1.5-1.5,2.8-1.5c1.9,0,3.3,1.6,3.3,3.9c0,2.8-1.7,4.2-3.5,4.2
		c-1,0-1.9-0.4-2.4-1.2h0v4.2h-1.4V631z M956.3,633c0,0.2,0,0.4,0.1,0.6c0.3,1,1.1,1.6,2.1,1.6c1.5,0,2.4-1.2,2.4-3
		c0-1.6-0.8-2.9-2.3-2.9c-1,0-1.9,0.7-2.1,1.7c0,0.2-0.1,0.4-0.1,0.6V633z"/>
	<path d="M965.7,626.2v2.2h2v1.1h-2v4.2c0,1,0.3,1.5,1.1,1.5c0.4,0,0.6,0,0.8-0.1l0.1,1.1c-0.3,0.1-0.7,0.2-1.2,0.2
		c-0.7,0-1.2-0.2-1.5-0.6c-0.4-0.4-0.5-1.1-0.5-2v-4.2h-1.2v-1.1h1.2v-1.9L965.7,626.2z"/>
	<path d="M970.9,626.3c0,0.5-0.3,0.9-0.9,0.9c-0.5,0-0.8-0.4-0.8-0.9c0-0.5,0.4-0.9,0.9-0.9C970.6,625.4,970.9,625.8,970.9,626.3z
		 M969.3,636.2v-7.7h1.4v7.7H969.3z"/>
	<path d="M980.1,632.3c0,2.9-2,4.1-3.9,4.1c-2.1,0-3.7-1.5-3.7-4c0-2.6,1.7-4.1,3.8-4.1C978.6,628.3,980.1,629.9,980.1,632.3z
		 M974,632.3c0,1.7,1,3,2.4,3c1.3,0,2.4-1.3,2.4-3c0-1.3-0.7-3-2.3-3S974,630.9,974,632.3z"/>
	<path d="M981.9,630.5c0-0.8,0-1.5-0.1-2.1h1.2l0.1,1.3h0c0.4-0.7,1.3-1.5,2.6-1.5c1.1,0,2.7,0.6,2.7,3.3v4.6h-1.4v-4.5
		c0-1.2-0.5-2.3-1.8-2.3c-0.9,0-1.6,0.7-1.9,1.4c-0.1,0.2-0.1,0.4-0.1,0.7v4.7h-1.4V630.5z"/>
</g>
<g>
	<path d="M1060.2,606.4c0.8-0.1,1.9-0.2,3-0.2c2,0,3.4,0.5,4.4,1.3c1,0.9,1.5,2.1,1.5,3.9c0,1.8-0.5,3.2-1.6,4.2
		c-1,1-2.7,1.6-4.8,1.6c-1,0-1.8,0-2.5-0.1V606.4z M1061.6,615.9c0.4,0.1,0.9,0.1,1.4,0.1c3,0,4.6-1.7,4.6-4.6
		c0-2.5-1.4-4.2-4.4-4.2c-0.7,0-1.3,0.1-1.6,0.1V615.9z"/>
	<path d="M1073.4,607.9L1073.4,607.9l-1.8,1l-0.3-1.1l2.3-1.2h1.2V617h-1.4V607.9z"/>
	<path d="M1081.6,607.9L1081.6,607.9l-1.8,1l-0.3-1.1l2.3-1.2h1.2V617h-1.4V607.9z"/>
	<path d="M1093.7,611.7c0,3.5-1.3,5.5-3.6,5.5c-2,0-3.4-1.9-3.4-5.3c0-3.5,1.5-5.4,3.6-5.4C1092.5,606.4,1093.7,608.4,1093.7,611.7z
		 M1088.1,611.8c0,2.7,0.8,4.2,2.1,4.2c1.4,0,2.1-1.7,2.1-4.3c0-2.6-0.7-4.2-2.1-4.2C1089,607.5,1088.1,609,1088.1,611.8z"/>
</g>
<g>
	<path d="M923.2,751.4c0.8-0.1,1.9-0.2,3-0.2c2,0,3.4,0.5,4.4,1.3c1,0.9,1.5,2.1,1.5,3.9c0,1.8-0.5,3.2-1.6,4.2
		c-1,1-2.7,1.6-4.8,1.6c-1,0-1.8,0-2.5-0.1V751.4z M924.6,760.9c0.4,0.1,0.9,0.1,1.4,0.1c3,0,4.6-1.7,4.6-4.6c0-2.5-1.4-4.2-4.4-4.2
		c-0.7,0-1.3,0.1-1.6,0.1V760.9z"/>
	<path d="M936.4,752.9L936.4,752.9l-1.8,1l-0.3-1.1l2.3-1.2h1.2V762h-1.4V752.9z"/>
	<path d="M944.6,752.9L944.6,752.9l-1.8,1l-0.3-1.1l2.3-1.2h1.2V762h-1.4V752.9z"/>
	<path d="M949.8,762v-0.9l1.1-1.1c2.7-2.5,3.9-3.9,3.9-5.4c0-1.1-0.5-2-2.1-2c-0.9,0-1.7,0.5-2.2,0.9l-0.4-1
		c0.7-0.6,1.7-1.1,2.9-1.1c2.2,0,3.2,1.5,3.2,3c0,1.9-1.4,3.5-3.6,5.6l-0.8,0.8v0h4.7v1.2H949.8z"/>
</g>
<g>
	<path d="M1060.2,751.4c0.8-0.1,1.9-0.2,3-0.2c2,0,3.4,0.5,4.4,1.3c1,0.9,1.5,2.1,1.5,3.9c0,1.8-0.5,3.2-1.6,4.2
		c-1,1-2.7,1.6-4.8,1.6c-1,0-1.8,0-2.5-0.1V751.4z M1061.6,760.9c0.4,0.1,0.9,0.1,1.4,0.1c3,0,4.6-1.7,4.6-4.6
		c0-2.5-1.4-4.2-4.4-4.2c-0.7,0-1.3,0.1-1.6,0.1V760.9z"/>
	<path d="M1073.4,752.9L1073.4,752.9l-1.8,1l-0.3-1.1l2.3-1.2h1.2V762h-1.4V752.9z"/>
	<path d="M1081.6,752.9L1081.6,752.9l-1.8,1l-0.3-1.1l2.3-1.2h1.2V762h-1.4V752.9z"/>
	<path d="M1089.8,752.9L1089.8,752.9l-1.8,1l-0.3-1.1l2.3-1.2h1.2V762h-1.4V752.9z"/>
</g>
<rect x="809" y="260" class="st1" width="331" height="138"/>
<g>
	<path d="M957.2,318.4c0.8-0.1,1.9-0.2,3-0.2c2,0,3.4,0.5,4.4,1.3c1,0.9,1.5,2.1,1.5,3.9c0,1.8-0.5,3.2-1.6,4.2
		c-1,1-2.7,1.6-4.8,1.6c-1,0-1.8,0-2.5-0.1V318.4z M958.6,327.9c0.4,0.1,0.9,0.1,1.4,0.1c3,0,4.6-1.7,4.6-4.6c0-2.5-1.4-4.2-4.4-4.2
		c-0.7,0-1.3,0.1-1.6,0.1V327.9z"/>
	<path d="M970.4,319.9L970.4,319.9l-1.8,1l-0.3-1.1l2.3-1.2h1.2V329h-1.4V319.9z"/>
	<path d="M982.5,323.7c0,3.5-1.3,5.5-3.6,5.5c-2,0-3.4-1.9-3.4-5.3c0-3.5,1.5-5.4,3.6-5.4C981.3,318.4,982.5,320.4,982.5,323.7z
		 M976.8,323.8c0,2.7,0.8,4.2,2.1,4.2c1.4,0,2.1-1.7,2.1-4.3c0-2.6-0.7-4.2-2.1-4.2C977.7,319.5,976.8,321,976.8,323.8z"/>
	<path d="M990.5,318.6v0.9L986,329h-1.5l4.5-9.2v0H984v-1.2H990.5z"/>
</g>
<rect x="875" y="398" class="st1" width="264" height="160"/>
<g>
	<path d="M987.2,467.4c0.8-0.1,1.9-0.2,3-0.2c2,0,3.4,0.5,4.4,1.3c1,0.9,1.5,2.1,1.5,3.9c0,1.8-0.5,3.2-1.6,4.2
		c-1,1-2.7,1.6-4.8,1.6c-1,0-1.8,0-2.5-0.1V467.4z M988.6,476.9c0.4,0.1,0.9,0.1,1.4,0.1c3,0,4.6-1.7,4.6-4.6c0-2.5-1.4-4.2-4.4-4.2
		c-0.7,0-1.3,0.1-1.6,0.1V476.9z"/>
	<path d="M1000.4,468.9L1000.4,468.9l-1.8,1l-0.3-1.1l2.3-1.2h1.2V478h-1.4V468.9z"/>
	<path d="M1012.5,472.7c0,3.5-1.3,5.5-3.6,5.5c-2,0-3.4-1.9-3.4-5.3c0-3.5,1.5-5.4,3.6-5.4C1011.3,467.4,1012.5,469.4,1012.5,472.7z
		 M1006.8,472.8c0,2.7,0.8,4.2,2.1,4.2c1.4,0,2.1-1.7,2.1-4.3c0-2.6-0.7-4.2-2.1-4.2C1007.7,468.5,1006.8,470,1006.8,472.8z"/>
	<path d="M1013.7,475.4c0-1.3,0.8-2.2,2.1-2.8l0,0c-1.2-0.5-1.6-1.4-1.6-2.3c0-1.6,1.4-2.8,3.2-2.8c2,0,3,1.3,3,2.6
		c0,0.9-0.4,1.8-1.7,2.4v0c1.3,0.5,2.1,1.4,2.1,2.7c0,1.8-1.6,3-3.5,3C1015,478.2,1013.7,476.9,1013.7,475.4z M1019.3,475.3
		c0-1.3-0.9-1.9-2.3-2.3c-1.2,0.4-1.9,1.2-1.9,2.1c0,1.1,0.8,2,2.1,2C1018.4,477.2,1019.3,476.4,1019.3,475.3z M1015.4,470.1
		c0,1,0.8,1.6,2,1.9c0.9-0.3,1.6-0.9,1.6-1.9c0-0.8-0.5-1.7-1.8-1.7C1016,468.4,1015.4,469.2,1015.4,470.1z"/>
</g>
<rect x="570" class="st1" width="569" height="259"/>
<g>
	<path d="M829.2,118.4c0.8-0.1,1.9-0.2,3-0.2c2,0,3.4,0.5,4.4,1.3c1,0.9,1.5,2.1,1.5,3.9c0,1.8-0.5,3.2-1.6,4.2
		c-1,1-2.7,1.6-4.8,1.6c-1,0-1.8,0-2.5-0.1V118.4z M830.6,127.9c0.4,0.1,0.9,0.1,1.4,0.1c3,0,4.6-1.7,4.6-4.6c0-2.5-1.4-4.2-4.4-4.2
		c-0.7,0-1.3,0.1-1.6,0.1V127.9z"/>
	<path d="M842.4,119.9L842.4,119.9l-1.8,1l-0.3-1.1l2.3-1.2h1.2V129h-1.4V119.9z"/>
	<path d="M854.5,123.7c0,3.5-1.3,5.5-3.6,5.5c-2,0-3.4-1.9-3.4-5.3c0-3.5,1.5-5.4,3.6-5.4C853.3,118.4,854.5,120.4,854.5,123.7z
		 M848.8,123.8c0,2.7,0.8,4.2,2.1,4.2c1.4,0,2.1-1.7,2.1-4.3c0-2.6-0.7-4.2-2.1-4.2C849.7,119.5,848.8,121,848.8,123.8z"/>
	<path d="M862,119.8h-4l-0.4,2.7c0.2,0,0.5-0.1,0.8-0.1c0.8,0,1.6,0.2,2.2,0.6c0.8,0.5,1.5,1.4,1.5,2.7c0,2-1.6,3.6-3.9,3.6
		c-1.1,0-2.1-0.3-2.6-0.6l0.4-1.1c0.4,0.3,1.3,0.6,2.2,0.6c1.3,0,2.5-0.9,2.5-2.3c0-1.3-0.9-2.3-3-2.3c-0.6,0-1.1,0.1-1.4,0.1l0.7-5
		h5V119.8z"/>
</g>
<rect x="369" class="st1" width="201" height="259"/>
<g>
	<path d="M468.2,118.4c0.8-0.1,1.9-0.2,3-0.2c2,0,3.4,0.5,4.4,1.3c1,0.9,1.5,2.1,1.5,3.9c0,1.8-0.5,3.2-1.6,4.2
		c-1,1-2.7,1.6-4.8,1.6c-1,0-1.8,0-2.5-0.1V118.4z M469.6,127.9c0.4,0.1,0.9,0.1,1.4,0.1c3,0,4.6-1.7,4.6-4.6c0-2.5-1.4-4.2-4.4-4.2
		c-0.7,0-1.3,0.1-1.6,0.1V127.9z"/>
	<path d="M481.4,119.9L481.4,119.9l-1.8,1l-0.3-1.1l2.3-1.2h1.2V129h-1.4V119.9z"/>
	<path d="M493.5,123.7c0,3.5-1.3,5.5-3.6,5.5c-2,0-3.4-1.9-3.4-5.3c0-3.5,1.5-5.4,3.6-5.4C492.3,118.4,493.5,120.4,493.5,123.7z
		 M487.8,123.8c0,2.7,0.8,4.2,2.1,4.2c1.4,0,2.1-1.7,2.1-4.3c0-2.6-0.7-4.2-2.1-4.2C488.7,119.5,487.8,121,487.8,123.8z"/>
	<path d="M499.1,129v-2.8h-4.8v-0.9l4.6-6.6h1.5v6.5h1.5v1.1h-1.5v2.8H499.1z M499.1,125.1v-3.5c0-0.5,0-1.1,0-1.6h0
		c-0.3,0.6-0.6,1.1-0.9,1.5l-2.5,3.5v0H499.1z"/>
	<path d="M507.7,129l-0.1-1h0c-0.4,0.6-1.3,1.2-2.4,1.2c-1.6,0-2.4-1.1-2.4-2.2c0-1.9,1.7-2.9,4.7-2.9v-0.2c0-0.6-0.2-1.8-1.8-1.8
		c-0.7,0-1.5,0.2-2,0.6l-0.3-0.9c0.6-0.4,1.6-0.7,2.5-0.7c2.4,0,2.9,1.6,2.9,3.2v2.9c0,0.7,0,1.3,0.1,1.9H507.7z M507.5,125
		c-1.5,0-3.3,0.2-3.3,1.7c0,0.9,0.6,1.3,1.3,1.3c1,0,1.6-0.6,1.9-1.3c0-0.1,0.1-0.3,0.1-0.4V125z"/>
</g>
<g>
	<path d="M320.2,339.4c0.8-0.1,1.9-0.2,3-0.2c2,0,3.4,0.5,4.4,1.3c1,0.9,1.5,2.1,1.5,3.9c0,1.8-0.5,3.2-1.6,4.2
		c-1,1-2.7,1.6-4.8,1.6c-1,0-1.8,0-2.5-0.1V339.4z M321.6,348.9c0.4,0.1,0.9,0.1,1.4,0.1c3,0,4.6-1.7,4.6-4.6c0-2.5-1.4-4.2-4.4-4.2
		c-0.7,0-1.3,0.1-1.6,0.1V348.9z"/>
	<path d="M333.4,340.9L333.4,340.9l-1.8,1l-0.3-1.1l2.3-1.2h1.2V350h-1.4V340.9z"/>
	<path d="M338.6,350v-0.9l1.1-1.1c2.7-2.5,3.9-3.9,3.9-5.4c0-1.1-0.5-2-2.1-2c-0.9,0-1.7,0.5-2.2,0.9l-0.4-1
		c0.7-0.6,1.7-1.1,2.9-1.1c2.2,0,3.2,1.5,3.2,3c0,1.9-1.4,3.5-3.6,5.6l-0.8,0.8v0h4.7v1.2H338.6z"/>
	<path d="M346.8,350v-0.9l1.1-1.1c2.7-2.5,3.9-3.9,3.9-5.4c0-1.1-0.5-2-2.1-2c-0.9,0-1.7,0.5-2.2,0.9l-0.4-1
		c0.7-0.6,1.7-1.1,2.9-1.1c2.2,0,3.2,1.5,3.2,3c0,1.9-1.4,3.5-3.6,5.6l-0.8,0.8v0h4.7v1.2H346.8z"/>
	<path d="M359.7,350l-0.1-1h0c-0.4,0.6-1.3,1.2-2.4,1.2c-1.6,0-2.4-1.1-2.4-2.2c0-1.9,1.7-2.9,4.7-2.9v-0.2c0-0.6-0.2-1.8-1.8-1.8
		c-0.7,0-1.5,0.2-2,0.6l-0.3-0.9c0.6-0.4,1.6-0.7,2.5-0.7c2.4,0,2.9,1.6,2.9,3.2v2.9c0,0.7,0,1.3,0.1,1.9H359.7z M359.5,346
		c-1.5,0-3.3,0.2-3.3,1.7c0,0.9,0.6,1.3,1.3,1.3c1,0,1.6-0.6,1.9-1.3c0-0.1,0.1-0.3,0.1-0.4V346z"/>
</g>
<g>
	<path d="M390.2,600.4c0.8-0.1,1.9-0.2,3-0.2c2,0,3.4,0.5,4.4,1.3c1,0.9,1.5,2.1,1.5,3.9c0,1.8-0.5,3.2-1.6,4.2
		c-1,1-2.7,1.6-4.8,1.6c-1,0-1.8,0-2.5-0.1V600.4z M391.6,609.9c0.4,0.1,0.9,0.1,1.4,0.1c3,0,4.6-1.7,4.6-4.6c0-2.5-1.4-4.2-4.4-4.2
		c-0.7,0-1.3,0.1-1.6,0.1V609.9z"/>
	<path d="M403.4,601.9L403.4,601.9l-1.8,1l-0.3-1.1l2.3-1.2h1.2V611h-1.4V601.9z"/>
	<path d="M408.6,611v-0.9l1.1-1.1c2.7-2.5,3.9-3.9,3.9-5.4c0-1.1-0.5-2-2.1-2c-0.9,0-1.7,0.5-2.2,0.9l-0.4-1
		c0.7-0.6,1.7-1.1,2.9-1.1c2.2,0,3.2,1.5,3.2,3c0,1.9-1.4,3.5-3.6,5.6l-0.8,0.8v0h4.7v1.2H408.6z"/>
	<path d="M416.8,611v-0.9l1.1-1.1c2.7-2.5,3.9-3.9,3.9-5.4c0-1.1-0.5-2-2.1-2c-0.9,0-1.7,0.5-2.2,0.9l-0.4-1
		c0.7-0.6,1.7-1.1,2.9-1.1c2.2,0,3.2,1.5,3.2,3c0,1.9-1.4,3.5-3.6,5.6l-0.8,0.8v0h4.7v1.2H416.8z"/>
	<path d="M425.4,611c0-0.5,0.1-1.3,0.1-2v-9.4h1.4v4.9h0c0.5-0.9,1.4-1.4,2.6-1.4c1.9,0,3.3,1.6,3.3,4c0,2.8-1.7,4.1-3.5,4.1
		c-1.1,0-2-0.4-2.6-1.5h0l-0.1,1.3H425.4z M426.8,607.9c0,0.2,0,0.4,0.1,0.5c0.3,1,1.1,1.6,2.1,1.6c1.5,0,2.4-1.2,2.4-3
		c0-1.6-0.8-2.9-2.3-2.9c-1,0-1.9,0.7-2.1,1.7c0,0.2-0.1,0.4-0.1,0.6V607.9z"/>
</g>
<rect x="345" y="369" class="st1" width="40" height="56"/>
<g>
	<path d="M359.2,417.3c-0.1-0.8-0.2-1.9-0.2-3c0-2,0.5-3.4,1.3-4.4c0.9-1,2.1-1.5,3.9-1.5c1.8,0,3.2,0.5,4.2,1.6
		c1,1,1.6,2.7,1.6,4.8c0,1,0,1.8-0.1,2.5H359.2z M368.8,415.9c0.1-0.4,0.1-0.9,0.1-1.4c0-3-1.7-4.6-4.6-4.6c-2.5,0-4.2,1.4-4.2,4.4
		c0,0.7,0.1,1.3,0.1,1.6H368.8z"/>
	<path d="M360.8,404.1L360.8,404.1l1,1.8l-1.1,0.3l-1.2-2.3v-1.2h10.4v1.4H360.8z"/>
	<path d="M369.9,398.9H369l-1.1-1.1c-2.5-2.7-3.9-3.9-5.4-3.9c-1.1,0-2,0.5-2,2.1c0,0.9,0.5,1.7,0.9,2.2l-1,0.4
		c-0.6-0.7-1.1-1.7-1.1-2.9c0-2.2,1.5-3.2,3-3.2c1.9,0,3.5,1.4,5.6,3.6l0.8,0.8h0v-4.7h1.2V398.9z"/>
	<path d="M364.6,383.8c3.5,0,5.5,1.3,5.5,3.6c0,2-1.9,3.4-5.3,3.4c-3.5,0-5.4-1.5-5.4-3.6C359.3,385,361.3,383.8,364.6,383.8z
		 M364.7,389.4c2.7,0,4.2-0.8,4.2-2.1c0-1.4-1.7-2.1-4.3-2.1c-2.6,0-4.2,0.7-4.2,2.1C360.4,388.5,361.9,389.4,364.7,389.4z"/>
	<path d="M369.9,377.8l-1,0.1v0c0.6,0.4,1.2,1.3,1.2,2.4c0,1.6-1.1,2.4-2.2,2.4c-1.9,0-2.9-1.7-2.9-4.7h-0.2c-0.6,0-1.8,0.2-1.8,1.8
		c0,0.7,0.2,1.5,0.6,2l-0.9,0.3c-0.4-0.6-0.7-1.6-0.7-2.5c0-2.4,1.6-2.9,3.2-2.9h2.9c0.7,0,1.3,0,1.9-0.1V377.8z M365.9,378
		c0,1.5,0.2,3.3,1.7,3.3c0.9,0,1.3-0.6,1.3-1.3c0-1-0.6-1.6-1.3-1.9c-0.1,0-0.3-0.1-0.4-0.1H365.9z"/>
</g>
<g>
	<rect x="385.5" y="369.5" class="st0" width="63" height="55"/>
	<path d="M448,370v54h-62v-54H448 M449,369h-64v56h64V369L449,369z"/>
</g>
<g>
	<path d="M411.2,417.3c-0.1-0.8-0.2-1.9-0.2-3c0-2,0.5-3.4,1.3-4.4c0.9-1,2.1-1.5,3.9-1.5c1.8,0,3.2,0.5,4.2,1.6
		c1,1,1.6,2.7,1.6,4.8c0,1,0,1.8-0.1,2.5H411.2z M420.8,415.9c0.1-0.4,0.1-0.9,0.1-1.4c0-3-1.7-4.6-4.6-4.6c-2.5,0-4.2,1.4-4.2,4.4
		c0,0.7,0.1,1.3,0.1,1.6H420.8z"/>
	<path d="M412.8,404.1L412.8,404.1l1,1.8l-1.1,0.3l-1.2-2.3v-1.2h10.4v1.4H412.8z"/>
	<path d="M421.9,398.9H421l-1.1-1.1c-2.5-2.7-3.9-3.9-5.4-3.9c-1.1,0-2,0.5-2,2.1c0,0.9,0.5,1.7,0.9,2.2l-1,0.4
		c-0.6-0.7-1.1-1.7-1.1-2.9c0-2.2,1.5-3.2,3-3.2c1.9,0,3.5,1.4,5.6,3.6l0.8,0.8h0v-4.7h1.2V398.9z"/>
	<path d="M416.6,383.8c3.5,0,5.5,1.3,5.5,3.6c0,2-1.9,3.4-5.3,3.4c-3.5,0-5.4-1.5-5.4-3.6C411.3,385,413.3,383.8,416.6,383.8z
		 M416.7,389.4c2.7,0,4.2-0.8,4.2-2.1c0-1.4-1.7-2.1-4.3-2.1c-2.6,0-4.2,0.7-4.2,2.1C412.4,388.5,413.9,389.4,416.7,389.4z"/>
</g>
<rect x="345" y="425" class="st1" width="72" height="82"/>
<g>
	<path d="M362.2,455.2h1.4v9.6h4.6v1.2h-6V455.2z"/>
	<path d="M371.3,456.1c0,0.5-0.3,0.9-0.9,0.9c-0.5,0-0.8-0.4-0.8-0.9c0-0.5,0.4-0.9,0.9-0.9C371,455.2,371.3,455.6,371.3,456.1z
		 M369.7,466v-7.7h1.4v7.7H369.7z"/>
	<path d="M373.6,466v-6.7h-1.1v-1.1h1.1v-0.4c0-1.1,0.2-2.1,0.9-2.7c0.5-0.5,1.2-0.7,1.9-0.7c0.5,0,0.9,0.1,1.2,0.2l-0.2,1.1
		c-0.2-0.1-0.5-0.2-0.9-0.2c-1.2,0-1.5,1.1-1.5,2.2v0.4h1.9v1.1H375v6.7H373.6z"/>
	<path d="M380,456v2.2h2v1.1h-2v4.2c0,1,0.3,1.5,1.1,1.5c0.4,0,0.6,0,0.8-0.1l0.1,1.1c-0.3,0.1-0.7,0.2-1.2,0.2
		c-0.7,0-1.2-0.2-1.5-0.6c-0.4-0.4-0.5-1.1-0.5-2v-4.2h-1.2v-1.1h1.2v-1.9L380,456z"/>
</g>
<rect x="345" y="507" class="st1" width="169" height="77"/>
<g>
	<path d="M407,550.3c0.6,0.4,1.5,0.7,2.5,0.7c1.4,0,2.3-0.8,2.3-1.8c0-1-0.6-1.6-2-2.1c-1.8-0.6-2.8-1.5-2.8-3.1
		c0-1.7,1.4-2.9,3.5-2.9c1.1,0,1.9,0.3,2.4,0.5l-0.4,1.1c-0.4-0.2-1.1-0.5-2-0.5c-1.5,0-2,0.9-2,1.6c0,1,0.7,1.5,2.1,2.1
		c1.8,0.7,2.8,1.6,2.8,3.2c0,1.7-1.2,3.1-3.8,3.1c-1,0-2.2-0.3-2.8-0.7L407,550.3z"/>
	<path d="M416.7,542v2.2h2v1.1h-2v4.2c0,1,0.3,1.5,1.1,1.5c0.4,0,0.6,0,0.8-0.1l0.1,1.1c-0.3,0.1-0.7,0.2-1.2,0.2
		c-0.7,0-1.2-0.2-1.5-0.6c-0.4-0.4-0.5-1.1-0.5-2v-4.2h-1.2v-1.1h1.2v-1.9L416.7,542z"/>
	<path d="M424.6,552l-0.1-1h0c-0.4,0.6-1.3,1.2-2.4,1.2c-1.6,0-2.4-1.1-2.4-2.2c0-1.9,1.7-2.9,4.7-2.9v-0.2c0-0.6-0.2-1.8-1.8-1.8
		c-0.7,0-1.5,0.2-2,0.6l-0.3-0.9c0.6-0.4,1.6-0.7,2.5-0.7c2.4,0,2.9,1.6,2.9,3.2v2.9c0,0.7,0,1.3,0.1,1.9H424.6z M424.4,548
		c-1.5,0-3.3,0.2-3.3,1.7c0,0.9,0.6,1.3,1.3,1.3c1,0,1.6-0.6,1.9-1.3c0-0.1,0.1-0.3,0.1-0.4V548z"/>
	<path d="M429.6,542.1c0,0.5-0.3,0.9-0.9,0.9c-0.5,0-0.8-0.4-0.8-0.9c0-0.5,0.4-0.9,0.9-0.9C429.2,541.2,429.6,541.6,429.6,542.1z
		 M428,552v-7.7h1.4v7.7H428z"/>
	<path d="M431.8,546.7c0-0.9,0-1.7-0.1-2.4h1.2l0,1.5h0.1c0.4-1,1.2-1.7,2.1-1.7c0.2,0,0.3,0,0.4,0v1.3c-0.1,0-0.3,0-0.5,0
		c-1,0-1.7,0.8-1.9,1.8c0,0.2-0.1,0.4-0.1,0.7v4.1h-1.4V546.7z"/>
	<path d="M436.8,550.6c0.4,0.3,1.2,0.6,1.9,0.6c1,0,1.5-0.5,1.5-1.2c0-0.7-0.4-1-1.4-1.4c-1.4-0.5-2-1.3-2-2.2c0-1.2,1-2.3,2.7-2.3
		c0.8,0,1.5,0.2,1.9,0.5l-0.4,1c-0.3-0.2-0.9-0.4-1.6-0.4c-0.8,0-1.3,0.5-1.3,1.1c0,0.6,0.5,0.9,1.5,1.3c1.3,0.5,2,1.2,2,2.3
		c0,1.4-1.1,2.3-2.9,2.3c-0.8,0-1.6-0.2-2.2-0.5L436.8,550.6z"/>
</g>
<g>
	<rect x="514.5" y="507.5" class="st0" width="131" height="76"/>
	<path d="M645,508v75H515v-75H645 M646,507H514v77h132V507L646,507z"/>
</g>
<g>
	<path d="M563.2,541.4c0.8-0.1,1.9-0.2,3-0.2c2,0,3.4,0.5,4.4,1.3c1,0.9,1.5,2.1,1.5,3.9c0,1.8-0.5,3.2-1.6,4.2
		c-1,1-2.7,1.6-4.8,1.6c-1,0-1.8,0-2.5-0.1V541.4z M564.6,550.9c0.4,0.1,0.9,0.1,1.4,0.1c3,0,4.6-1.7,4.6-4.6c0-2.5-1.4-4.2-4.4-4.2
		c-0.7,0-1.3,0.1-1.6,0.1V550.9z"/>
	<path d="M576.4,542.9L576.4,542.9l-1.8,1l-0.3-1.1l2.3-1.2h1.2V552h-1.4V542.9z"/>
	<path d="M584.6,542.9L584.6,542.9l-1.8,1l-0.3-1.1l2.3-1.2h1.2V552h-1.4V542.9z"/>
	<path d="M595.7,542.6c-0.3,0-0.7,0-1.1,0.1c-2.2,0.4-3.4,2-3.6,3.7h0c0.5-0.7,1.4-1.2,2.5-1.2c1.8,0,3.1,1.3,3.1,3.4
		c0,1.9-1.3,3.7-3.5,3.7c-2.2,0-3.7-1.7-3.7-4.4c0-2,0.7-3.7,1.8-4.7c0.9-0.8,2-1.4,3.3-1.5c0.4-0.1,0.8-0.1,1-0.1V542.6z
		 M595.3,548.6c0-1.5-0.8-2.4-2.1-2.4c-0.8,0-1.6,0.5-2,1.3c-0.1,0.2-0.2,0.4-0.2,0.6c0,1.7,0.8,3,2.3,3
		C594.5,551.1,595.3,550.1,595.3,548.6z"/>
</g>
<rect x="646" y="507" class="st1" width="163" height="77"/>
<g>
	<path d="M709.2,541.4c0.8-0.1,1.9-0.2,3-0.2c2,0,3.4,0.5,4.4,1.3c1,0.9,1.5,2.1,1.5,3.9c0,1.8-0.5,3.2-1.6,4.2
		c-1,1-2.7,1.6-4.8,1.6c-1,0-1.8,0-2.5-0.1V541.4z M710.6,550.9c0.4,0.1,0.9,0.1,1.4,0.1c3,0,4.6-1.7,4.6-4.6c0-2.5-1.4-4.2-4.4-4.2
		c-0.7,0-1.3,0.1-1.6,0.1V550.9z"/>
	<path d="M722.4,542.9L722.4,542.9l-1.8,1l-0.3-1.1l2.3-1.2h1.2V552h-1.4V542.9z"/>
	<path d="M730.6,542.9L730.6,542.9l-1.8,1l-0.3-1.1l2.3-1.2h1.2V552h-1.4V542.9z"/>
	<path d="M742.5,541.6v0.9L738,552h-1.5l4.5-9.2v0H736v-1.2H742.5z"/>
</g>
<rect x="718" y="369" class="st1" width="91" height="138"/>
<g>
	<path d="M746.2,427.4c0.8-0.1,1.9-0.2,3-0.2c2,0,3.4,0.5,4.4,1.3c1,0.9,1.5,2.1,1.5,3.9c0,1.8-0.5,3.2-1.6,4.2
		c-1,1-2.7,1.6-4.8,1.6c-1,0-1.8,0-2.5-0.1V427.4z M747.6,436.9c0.4,0.1,0.9,0.1,1.4,0.1c3,0,4.6-1.7,4.6-4.6c0-2.5-1.4-4.2-4.4-4.2
		c-0.7,0-1.3,0.1-1.6,0.1V436.9z"/>
	<path d="M759.4,428.9L759.4,428.9l-1.8,1l-0.3-1.1l2.3-1.2h1.2V438h-1.4V428.9z"/>
	<path d="M771.5,432.7c0,3.5-1.3,5.5-3.6,5.5c-2,0-3.4-1.9-3.4-5.3c0-3.5,1.5-5.4,3.6-5.4C770.3,427.4,771.5,429.4,771.5,432.7z
		 M765.8,432.8c0,2.7,0.8,4.2,2.1,4.2c1.4,0,2.1-1.7,2.1-4.3c0-2.6-0.7-4.2-2.1-4.2C766.7,428.5,765.8,430,765.8,432.8z"/>
	<path d="M778.7,428.6c-0.3,0-0.7,0-1.1,0.1c-2.2,0.4-3.4,2-3.6,3.7h0c0.5-0.7,1.4-1.2,2.5-1.2c1.8,0,3.1,1.3,3.1,3.4
		c0,1.9-1.3,3.7-3.5,3.7c-2.2,0-3.7-1.7-3.7-4.4c0-2,0.7-3.7,1.8-4.7c0.9-0.8,2-1.4,3.3-1.5c0.4-0.1,0.8-0.1,1-0.1V428.6z
		 M778.3,434.6c0-1.5-0.8-2.4-2.1-2.4c-0.8,0-1.6,0.5-2,1.3c-0.1,0.2-0.2,0.4-0.2,0.6c0,1.7,0.8,3,2.3,3
		C777.5,437.1,778.3,436.1,778.3,434.6z"/>
</g>
<rect x="529" y="369" class="st1" width="189" height="56"/>
<g>
	<path d="M605,402.3c0.6,0.4,1.5,0.7,2.5,0.7c1.4,0,2.3-0.8,2.3-1.8c0-1-0.6-1.6-2-2.1c-1.8-0.6-2.8-1.5-2.8-3.1
		c0-1.7,1.4-2.9,3.5-2.9c1.1,0,1.9,0.3,2.4,0.5l-0.4,1.1c-0.4-0.2-1.1-0.5-2-0.5c-1.5,0-2,0.9-2,1.6c0,1,0.7,1.5,2.1,2.1
		c1.8,0.7,2.8,1.6,2.8,3.2c0,1.7-1.2,3.1-3.8,3.1c-1,0-2.2-0.3-2.8-0.7L605,402.3z"/>
	<path d="M614.7,394v2.2h2v1.1h-2v4.2c0,1,0.3,1.5,1.1,1.5c0.4,0,0.6,0,0.8-0.1l0.1,1.1c-0.3,0.1-0.7,0.2-1.2,0.2
		c-0.7,0-1.2-0.2-1.5-0.6c-0.4-0.4-0.5-1.1-0.5-2v-4.2h-1.2v-1.1h1.2v-1.9L614.7,394z"/>
	<path d="M622.6,404l-0.1-1h0c-0.4,0.6-1.3,1.2-2.4,1.2c-1.6,0-2.4-1.1-2.4-2.2c0-1.9,1.7-2.9,4.7-2.9v-0.2c0-0.6-0.2-1.8-1.8-1.8
		c-0.7,0-1.5,0.2-2,0.6l-0.3-0.9c0.6-0.4,1.6-0.7,2.5-0.7c2.4,0,2.9,1.6,2.9,3.2v2.9c0,0.7,0,1.3,0.1,1.9H622.6z M622.4,400
		c-1.5,0-3.3,0.2-3.3,1.7c0,0.9,0.6,1.3,1.3,1.3c1,0,1.6-0.6,1.9-1.3c0-0.1,0.1-0.3,0.1-0.4V400z"/>
	<path d="M627.6,394.1c0,0.5-0.3,0.9-0.9,0.9c-0.5,0-0.8-0.4-0.8-0.9c0-0.5,0.4-0.9,0.9-0.9C627.2,393.2,627.6,393.6,627.6,394.1z
		 M626,404v-7.7h1.4v7.7H626z"/>
	<path d="M629.8,398.7c0-0.9,0-1.7-0.1-2.4h1.2l0,1.5h0.1c0.4-1,1.2-1.7,2.1-1.7c0.2,0,0.3,0,0.4,0v1.3c-0.1,0-0.3,0-0.5,0
		c-1,0-1.7,0.8-1.9,1.8c0,0.2-0.1,0.4-0.1,0.7v4.1h-1.4V398.7z"/>
	<path d="M634.8,402.6c0.4,0.3,1.2,0.6,1.9,0.6c1,0,1.5-0.5,1.5-1.2c0-0.7-0.4-1-1.4-1.4c-1.4-0.5-2-1.3-2-2.2c0-1.2,1-2.3,2.7-2.3
		c0.8,0,1.5,0.2,1.9,0.5l-0.4,1c-0.3-0.2-0.9-0.4-1.6-0.4c-0.8,0-1.3,0.5-1.3,1.1c0,0.6,0.5,0.9,1.5,1.3c1.3,0.5,2,1.2,2,2.3
		c0,1.4-1.1,2.3-2.9,2.3c-0.8,0-1.6-0.2-2.2-0.5L634.8,402.6z"/>
</g>
<rect x="417" y="425" class="st1" width="228.5" height="82"/>
<g>
	<path d="M515.2,455.4c0.8-0.1,1.9-0.2,3-0.2c2,0,3.4,0.5,4.4,1.3c1,0.9,1.5,2.1,1.5,3.9c0,1.8-0.5,3.2-1.6,4.2
		c-1,1-2.7,1.6-4.8,1.6c-1,0-1.8,0-2.5-0.1V455.4z M516.6,464.9c0.4,0.1,0.9,0.1,1.4,0.1c3,0,4.6-1.7,4.6-4.6c0-2.5-1.4-4.2-4.4-4.2
		c-0.7,0-1.3,0.1-1.6,0.1V464.9z"/>
	<path d="M528.4,456.9L528.4,456.9l-1.8,1l-0.3-1.1l2.3-1.2h1.2V466h-1.4V456.9z"/>
	<path d="M536.6,456.9L536.6,456.9l-1.8,1l-0.3-1.1l2.3-1.2h1.2V466h-1.4V456.9z"/>
	<path d="M542.6,465c0.3,0,0.7,0,1.1,0c0.8-0.1,1.6-0.4,2.2-1c0.7-0.6,1.2-1.5,1.4-2.8h0c-0.6,0.7-1.4,1.1-2.4,1.1
		c-1.9,0-3.1-1.4-3.1-3.2c0-2,1.4-3.7,3.6-3.7c2.1,0,3.4,1.7,3.4,4.4c0,2.3-0.8,3.9-1.8,4.9c-0.8,0.8-1.9,1.3-3,1.4
		c-0.5,0.1-1,0.1-1.3,0.1V465z M543.1,459c0,1.3,0.8,2.2,2,2.2c0.9,0,1.7-0.5,2-1.1c0.1-0.1,0.1-0.3,0.1-0.5c0-1.8-0.7-3.1-2.1-3.1
		C544,456.5,543.1,457.5,543.1,459z"/>
</g>
<g>
	<path d="M665.2,459.4c0.8-0.1,1.9-0.2,3-0.2c2,0,3.4,0.5,4.4,1.3c1,0.9,1.5,2.1,1.5,3.9c0,1.8-0.5,3.2-1.6,4.2
		c-1,1-2.7,1.6-4.8,1.6c-1,0-1.8,0-2.5-0.1V459.4z M666.6,468.9c0.4,0.1,0.9,0.1,1.4,0.1c3,0,4.6-1.7,4.6-4.6c0-2.5-1.4-4.2-4.4-4.2
		c-0.7,0-1.3,0.1-1.6,0.1V468.9z"/>
	<path d="M678.4,460.9L678.4,460.9l-1.8,1l-0.3-1.1l2.3-1.2h1.2V470h-1.4V460.9z"/>
	<path d="M686.6,460.9L686.6,460.9l-1.8,1l-0.3-1.1l2.3-1.2h1.2V470h-1.4V460.9z"/>
	<path d="M691.7,467.4c0-1.3,0.8-2.2,2.1-2.8l0,0c-1.2-0.5-1.6-1.4-1.6-2.3c0-1.6,1.4-2.8,3.2-2.8c2,0,3,1.3,3,2.6
		c0,0.9-0.4,1.8-1.7,2.4v0c1.3,0.5,2.1,1.4,2.1,2.7c0,1.8-1.6,3-3.5,3C693,470.2,691.7,468.9,691.7,467.4z M697.3,467.3
		c0-1.3-0.9-1.9-2.3-2.3c-1.2,0.4-1.9,1.2-1.9,2.1c0,1.1,0.8,2,2.1,2C696.4,469.2,697.3,468.4,697.3,467.3z M693.4,462.1
		c0,1,0.8,1.6,2,1.9c0.9-0.3,1.6-0.9,1.6-1.9c0-0.8-0.5-1.7-1.8-1.7C694,460.4,693.4,461.2,693.4,462.1z"/>
</g>
<g>
	<path d="M810.2,606.4c0.8-0.1,1.9-0.2,3-0.2c2,0,3.4,0.5,4.4,1.3c1,0.9,1.5,2.1,1.5,3.9c0,1.8-0.5,3.2-1.6,4.2
		c-1,1-2.7,1.6-4.8,1.6c-1,0-1.8,0-2.5-0.1V606.4z M811.6,615.9c0.4,0.1,0.9,0.1,1.4,0.1c3,0,4.6-1.7,4.6-4.6c0-2.5-1.4-4.2-4.4-4.2
		c-0.7,0-1.3,0.1-1.6,0.1V615.9z"/>
	<path d="M823.4,607.9L823.4,607.9l-1.8,1l-0.3-1.1l2.3-1.2h1.2V617h-1.4V607.9z"/>
	<path d="M835.5,611.7c0,3.5-1.3,5.5-3.6,5.5c-2,0-3.4-1.9-3.4-5.3c0-3.5,1.5-5.4,3.6-5.4C834.3,606.4,835.5,608.4,835.5,611.7z
		 M829.8,611.8c0,2.7,0.8,4.2,2.1,4.2c1.4,0,2.1-1.7,2.1-4.3c0-2.6-0.7-4.2-2.1-4.2C830.7,607.5,829.8,609,829.8,611.8z"/>
	<path d="M837.6,616c0.3,0,0.7,0,1.1,0c0.8-0.1,1.6-0.4,2.2-1c0.7-0.6,1.2-1.5,1.4-2.8h0c-0.6,0.7-1.4,1.1-2.4,1.1
		c-1.9,0-3.1-1.4-3.1-3.2c0-2,1.4-3.7,3.6-3.7s3.4,1.7,3.4,4.4c0,2.3-0.8,3.9-1.8,4.9c-0.8,0.8-1.9,1.3-3,1.4
		c-0.5,0.1-1,0.1-1.3,0.1V616z M838.1,610c0,1.3,0.8,2.2,2,2.2c0.9,0,1.7-0.5,2-1.1c0.1-0.1,0.1-0.3,0.1-0.5c0-1.8-0.7-3.1-2.1-3.1
		C839,607.5,838.1,608.5,838.1,610z"/>
	<path d="M849.7,617l-0.1-1h0c-0.4,0.6-1.3,1.2-2.4,1.2c-1.6,0-2.4-1.1-2.4-2.2c0-1.9,1.7-2.9,4.7-2.9v-0.2c0-0.6-0.2-1.8-1.8-1.8
		c-0.7,0-1.5,0.2-2,0.6l-0.3-0.9c0.6-0.4,1.6-0.7,2.5-0.7c2.4,0,2.9,1.6,2.9,3.2v2.9c0,0.7,0,1.3,0.1,1.9H849.7z M849.5,613
		c-1.5,0-3.3,0.2-3.3,1.7c0,0.9,0.6,1.3,1.3,1.3c1,0,1.6-0.6,1.9-1.3c0-0.1,0.1-0.3,0.1-0.4V613z"/>
</g>
<g>
</g>
<g>
</g>
<g>
</g>
<g>
</g>
<g>
</g>
<g>
</g>
<g>
</g>
<g>
</g>
<g>
</g>
<g>
</g>
<g>
</g>
<g>
</g>
<g>
</g>
<g>
</g>
<g>
</g>
</svg>
